# xmcd
#
# Track frame offsets: 
#        150
#        21353
#        47172
#        62436
#        87851
#        111129
#        134322
#        149745
#        177520
#        211058
#        251008
#
# Disc length: 3690 seconds
#
# Revision: 2
# Processed by: cddbd v1.5.2PL0 Copyright (c) Steve Scherf et al.
# Submitted via: ExactAudioCopyFreeDBPlugin 1.0
#
DISCID=9f0e680b
DTITLE=The Isley Brothers - Winner Takes All
DYEAR=1979
DGENRE=Rhythm and Blues
TTITLE0=Let's Fall in Love (Parts 1 and 2)
TTITLE1=How Lucky I Am (Parts 1 and 2)
TTITLE2=You're the Key to My Heart
TTITLE3=You're Beside Me (Parts 1 and 2)
TTITLE4=Let Me in Your Life (Parts 1 and 2)
TTITLE5=Love Comes and Goes (Parts 1 and 2)
TTITLE6=Go for What You Know
TTITLE7=Mind Over Matter (Parts 1 and 2)
TTITLE8=I Wanna Be with You (Parts 1 and 2) (extended version)
TTITLE9=It's a Disco Night (Rock Don't Stop) (Parts 1 and 2) (disco remi
TTITLE9=x)
TTITLE10=Rudy's Tune (How Lucky I Am)
EXTD=
EXTT0=
EXTT1=
EXTT2=
EXTT3=
EXTT4=
EXTT5=
EXTT6=
EXTT7=
EXTT8=
EXTT9=
EXTT10=
PLAYORDER=
